<svg xmlns="http://www.w3.org/2000/svg" xmlns:xlink="http://www.w3.org/1999/xlink" width="1080" zoomAndPan="magnify" viewBox="0 0 810 809.999993" height="1080" preserveAspectRatio="xMidYMid meet" version="1.2"><defs><clipPath id="8cea826bd8"><path d="M 158 81 L 652.890625 81 L 652.890625 726 L 158 726 Z M 158 81 "/></clipPath><clipPath id="f6c2a21b49"><rect x="0" width="495" y="0" height="645"/></clipPath></defs><g id="f006c5fc38"><g clip-rule="nonzero" clip-path="url(#8cea826bd8)"><g transform="matrix(1,0,0,1,158,81)"><g clip-path="url(#f6c2a21b49)"><path style=" stroke:none;fill-rule:nonzero;fill:#f1c8d0;fill-opacity:1;" d="M 334.378906 125.261719 C 334.328125 125.058594 334.300781 124.855469 334.25 124.652344 C 334.25 124.601562 334.25 124.550781 334.226562 124.5 C 334.277344 124.753906 334.328125 125.007812 334.378906 125.234375 Z M 334.378906 125.261719 "/><path style=" stroke:none;fill-rule:nonzero;fill:#f1c8d0;fill-opacity:1;" d="M 232.636719 154.871094 C 249.101562 164.488281 266.203125 173.035156 283.480469 181.28125 C 271.710938 184.960938 259.886719 188.539062 248.242188 192.496094 C 235.097656 196.785156 221.957031 201.125 208.941406 205.816406 C 205.894531 206.910156 204.574219 210.816406 205.820312 213.65625 C 207.136719 216.777344 210.589844 217.894531 213.660156 216.804688 C 224.238281 213.023438 234.921875 209.574219 245.578125 206.046875 C 246.84375 207.871094 248.699219 209.242188 251.007812 208.863281 C 264.683594 206.453125 278.203125 203.128906 291.726562 199.957031 C 298.679688 198.460938 305.53125 196.554688 312.433594 194.882812 C 318.214844 197.546875 323.976562 200.285156 329.734375 202.976562 C 318.546875 220.28125 306.925781 237.304688 294.925781 254.050781 C 289.800781 259.199219 284.371094 264.046875 278.101562 268.003906 C 273.96875 269.398438 269.375 272.445312 271.457031 277.417969 C 272.722656 280.410156 276.300781 281.855469 279.296875 280.5625 C 279.828125 280.335938 280.210938 279.929688 280.714844 279.675781 C 282.390625 281.425781 284.929688 282.3125 288.203125 280.816406 C 295.636719 275.539062 300.785156 267.878906 305.835938 260.191406 C 313.828125 251.589844 320.980469 241.972656 328.492188 233.246094 C 334.480469 225.859375 339.933594 218.046875 345.667969 210.433594 C 348.917969 211.933594 352.164062 213.453125 355.410156 214.953125 C 358.355469 227.636719 361.476562 240.273438 364.039062 253.058594 C 366.523438 265.695312 368.023438 278.585938 369.621094 291.398438 C 370.027344 299.1875 373.222656 307.28125 370.332031 314.816406 C 368.375 322.453125 379.71875 325.269531 381.875 317.886719 C 389.613281 288.148438 387.710938 257.550781 382.457031 227.28125 C 401.03125 235.554688 419.804688 243.316406 439.242188 249.304688 C 476.03125 261.660156 473.976562 243.011719 465.933594 239.714844 C 465.78125 239.207031 465.957031 238.777344 465.679688 238.242188 C 460.375 232.609375 452.511719 231.0625 445.378906 226.851562 C 426.730469 217.640625 408.3125 207.898438 390.09375 197.851562 C 384.792969 194.882812 379.640625 191.710938 374.390625 188.691406 C 373.601562 185.417969 372.867188 182.171875 372.054688 178.949219 C 408.085938 168.445312 443.933594 157.253906 480.214844 147.691406 C 483.160156 146.597656 486.332031 147.539062 489.171875 146.421875 C 493.613281 144.519531 493.992188 138.125 489.808594 135.738281 C 485.089844 133.304688 479.609375 135.941406 474.734375 136.730469 C 454.742188 141.472656 435.207031 147.917969 415.570312 153.882812 C 403.441406 157.636719 391.1875 160.882812 378.980469 164.410156 C 379.03125 164.335938 379.082031 164.257812 379.132812 164.183594 C 387.253906 161.59375 395.398438 159.109375 403.492188 156.417969 C 429.878906 147.285156 457.152344 139.875 482.324219 127.671875 C 489.527344 124.828125 494.449219 114.503906 484.429688 112.042969 C 481.585938 111.558594 478.746094 113.617188 477.957031 116.355469 C 449.363281 128.789062 419.78125 138.859375 389.96875 148.351562 C 393.191406 143.578125 396.515625 138.886719 399.738281 134.117188 C 410.214844 118.410156 420.464844 103.0625 430.816406 86.949219 C 434.773438 79.339844 453.703125 57.011719 439.367188 52.316406 C 436.273438 51.9375 432.898438 54.246094 432.695312 57.519531 C 429.675781 70.964844 418.816406 81.671875 412.21875 93.648438 C 408.691406 98.949219 405.191406 104.226562 401.691406 109.53125 C 411.332031 93.191406 420.921875 76.851562 430.589844 60.539062 C 432.238281 57.746094 431.199219 54.015625 428.40625 52.394531 C 423.207031 49.398438 419.652344 54.855469 417.648438 58.988281 C 404.226562 81.722656 391.007812 104.558594 377.410156 127.164062 C 372.996094 134.242188 368.578125 141.320312 364.191406 148.425781 C 355.765625 117.140625 346.886719 85.984375 339.757812 54.371094 C 336.710938 40.542969 333.769531 26.664062 330.089844 13.015625 C 329.253906 9.566406 328.667969 5.785156 325.675781 3.5 C 321.132812 -0.0507812 314.488281 4.769531 316.339844 10.351562 C 313.777344 20.933594 317.632812 32.730469 318.800781 43.488281 C 322.226562 62.921875 325.472656 82.457031 329.40625 101.742188 C 330.980469 109.148438 332.628906 117.066406 334.25 124.703125 C 337.09375 137.492188 340.265625 150.203125 343.335938 162.9375 C 340.417969 163.800781 337.523438 164.6875 334.605469 165.550781 C 302.460938 146.546875 270.414062 127.34375 238.09375 108.644531 C 231.242188 104.785156 225.507812 115.085938 232.128906 118.996094 C 259.304688 134.878906 286.347656 150.988281 313.421875 167 C 315.246094 168.113281 317.175781 169.105469 319.003906 170.21875 C 312.761719 172.097656 306.546875 174.027344 300.328125 175.929688 C 267.472656 160.324219 234.996094 143.960938 204.269531 124.042969 C 201.554688 122.292969 197.699219 123.511719 196.125 126.226562 C 194.425781 129.144531 195.570312 132.644531 198.28125 134.394531 C 209.523438 141.574219 221.066406 148.222656 232.613281 154.871094 Z M 436.042969 235.476562 C 416.8125 229.566406 398.164062 221.445312 379.792969 212.945312 C 379.210938 210.078125 378.652344 207.210938 378.019531 204.347656 C 397.277344 214.976562 416.660156 225.277344 436.070312 235.476562 Z M 339.121094 188.3125 C 338.160156 189.808594 337.21875 191.328125 336.257812 192.851562 C 334.453125 192.015625 332.652344 191.175781 330.878906 190.339844 C 333.617188 189.628906 336.40625 189.046875 339.121094 188.3125 Z M 339.121094 188.3125 "/><path style=" stroke:none;fill-rule:nonzero;fill:#f1c8d0;fill-opacity:1;" d="M 9.085938 553.386719 C 29.40625 549.683594 49.855469 546.410156 70.257812 543.1875 C 55.335938 545.953125 40.46875 548.871094 25.726562 552.472656 C 19.308594 554.605469 10.53125 555.0625 6.929688 561.53125 C 3.199219 568.789062 12.636719 572.0625 18.371094 571.402344 C 43.84375 568.890625 69.011719 564.425781 94.132812 559.578125 C 94.257812 560.667969 94.359375 561.785156 94.488281 562.878906 C 92.457031 565.691406 90.273438 568.382812 88.246094 571.199219 C 78.757812 583.226562 71.117188 596.46875 58.332031 605.578125 C 40.773438 600.527344 50.796875 635.289062 75.890625 606.007812 C 82.867188 597.382812 89.589844 588.527344 96.339844 579.699219 C 98.113281 595.277344 100.042969 610.828125 101.515625 626.433594 C 97.835938 634.605469 109.050781 643.863281 113.386719 633.613281 C 112.246094 610.957031 109.8125 588.300781 107.121094 565.667969 C 109.480469 562.523438 111.839844 559.351562 114.199219 556.179688 C 114.53125 556.355469 114.835938 556.585938 115.191406 556.761719 C 118.589844 581.90625 120.367188 607.226562 119.097656 632.597656 C 118.945312 634.25 118.742188 635.921875 118.386719 637.546875 C 116.535156 645.132812 127.925781 648.074219 129.929688 640.589844 C 132.621094 615.015625 131.378906 589.367188 128.230469 563.816406 C 137.339844 568.609375 146.371094 573.507812 155.429688 578.355469 C 161.796875 584.113281 168.269531 589.769531 174.484375 595.707031 C 181.511719 600.425781 192.472656 618.621094 201.503906 611.3125 C 202.0625 610.78125 202.242188 610.070312 202.519531 609.410156 C 204.929688 613.140625 211.300781 613.367188 213.175781 608.621094 C 215.96875 597.027344 194.859375 587.894531 186.839844 582.210938 C 179.230469 577.871094 171.542969 573.683594 163.828125 569.550781 C 156.417969 563.027344 148.859375 556.6875 141.273438 550.34375 C 156.367188 547.398438 171.464844 544.582031 186.636719 542.222656 C 205.488281 546.410156 205.742188 525.832031 186.179688 530.25 C 196.457031 527.535156 206.832031 525.199219 216.957031 521.925781 C 219.695312 521.0625 221.980469 519.109375 222.5625 516.191406 C 223.453125 512.816406 221.066406 509.089844 217.539062 508.734375 C 200.1875 508.480469 183.058594 513.273438 165.910156 515.660156 C 157.816406 517.082031 149.695312 518.273438 141.601562 519.617188 C 156.519531 499.699219 171.59375 479.9375 187.675781 460.933594 C 190.59375 458.574219 193.105469 453.601562 189.582031 450.378906 C 181.410156 444.109375 175.878906 457.785156 170.832031 462.53125 C 162.863281 472.957031 154.644531 483.183594 146.550781 493.511719 C 139.066406 502.921875 132.1875 512.765625 124.933594 522.332031 C 123.867188 522.511719 122.828125 522.6875 121.761719 522.839844 C 118.613281 506.09375 115.0625 489.449219 111.535156 472.957031 C 111.5625 473.160156 111.613281 473.363281 111.664062 473.566406 C 108.746094 463.648438 108.769531 451.316406 101.894531 443.070312 C 96.210938 437.667969 87.964844 446.164062 93.472656 451.570312 C 98.242188 462.859375 99.359375 475.597656 102.53125 487.546875 C 105.21875 499.851562 107.78125 512.285156 110.066406 524.742188 C 110.066406 524.742188 110.066406 524.742188 110.039062 524.742188 C 107.097656 522.410156 104.128906 520.074219 101.183594 517.765625 C 98.445312 496.808594 95.78125 475.851562 93.726562 454.917969 C 93.34375 451.695312 90.046875 449.414062 86.925781 449.871094 C 78.375 451.847656 83.273438 462.429688 83.222656 468.492188 C 84.71875 481.433594 86.34375 494.371094 87.914062 507.3125 C 70.636719 493.765625 53.308594 480.242188 36.207031 466.4375 C 29.941406 461.695312 22.914062 471.15625 28.949219 475.925781 C 48.664062 492.648438 69.367188 508.148438 89.917969 523.855469 C 90.046875 524.945312 90.171875 526.035156 90.324219 527.152344 C 69.214844 512.691406 49.453125 496.378906 29.507812 480.367188 C 23.242188 475.621094 16.164062 485.085938 22.253906 489.832031 C 39.480469 503.734375 56.785156 517.589844 74.773438 530.503906 C 52.265625 534.054688 29.761719 537.582031 7.332031 541.640625 C -0.429688 542.910156 1.449219 554.554688 9.085938 553.4375 Z M 9.085938 553.386719 "/></g></g></g></g></svg>