<svg xmlns="http://www.w3.org/2000/svg" xmlns:xlink="http://www.w3.org/1999/xlink" width="1080" zoomAndPan="magnify" viewBox="0 0 810 809.999993" height="1080" preserveAspectRatio="xMidYMid meet" version="1.2"><g id="bb71f60447"><path style=" stroke:none;fill-rule:nonzero;fill:#f1c8d0;fill-opacity:1;" d="M 317.617188 603.738281 C 317.667969 603.941406 317.691406 604.144531 317.742188 604.347656 C 317.742188 604.398438 317.742188 604.449219 317.769531 604.5 C 317.71875 604.246094 317.667969 603.992188 317.617188 603.765625 Z M 317.617188 603.738281 "/><path style=" stroke:none;fill-rule:nonzero;fill:#f1c8d0;fill-opacity:1;" d="M 419.359375 574.128906 C 402.890625 564.511719 385.789062 555.964844 368.511719 547.71875 C 380.285156 544.039062 392.109375 540.460938 403.753906 536.503906 C 416.898438 532.214844 430.039062 527.875 443.054688 523.183594 C 446.101562 522.089844 447.417969 518.183594 446.175781 515.34375 C 444.855469 512.222656 441.40625 511.105469 438.335938 512.195312 C 427.757812 515.976562 417.074219 519.425781 406.417969 522.953125 C 405.148438 521.128906 403.296875 519.757812 400.988281 520.136719 C 387.3125 522.546875 373.789062 525.871094 360.265625 529.042969 C 353.316406 530.539062 346.464844 532.445312 339.5625 534.117188 C 333.777344 531.453125 328.019531 528.714844 322.257812 526.023438 C 333.449219 508.71875 345.070312 491.695312 357.070312 474.949219 C 362.195312 469.800781 367.625 464.953125 373.890625 460.996094 C 378.027344 459.601562 382.621094 456.554688 380.539062 451.582031 C 379.269531 448.589844 375.691406 447.144531 372.699219 448.4375 C 372.167969 448.664062 371.785156 449.070312 371.277344 449.324219 C 369.601562 447.574219 367.066406 446.6875 363.792969 448.183594 C 356.359375 453.460938 351.207031 461.121094 346.160156 468.808594 C 338.167969 477.410156 331.011719 487.027344 323.503906 495.753906 C 317.515625 503.140625 312.058594 510.953125 306.324219 518.566406 C 303.078125 517.066406 299.832031 515.546875 296.582031 514.046875 C 293.640625 501.363281 290.519531 488.726562 287.957031 475.941406 C 285.46875 463.304688 283.972656 450.414062 282.375 437.601562 C 281.96875 429.8125 278.773438 421.71875 281.664062 414.183594 C 283.617188 406.546875 272.277344 403.730469 270.121094 411.113281 C 262.382812 440.851562 264.285156 471.449219 269.535156 501.71875 C 250.964844 493.445312 232.1875 485.683594 212.753906 479.695312 C 175.964844 467.339844 178.019531 485.988281 186.0625 489.285156 C 186.214844 489.792969 186.039062 490.222656 186.316406 490.757812 C 191.621094 496.390625 199.484375 497.9375 206.613281 502.148438 C 225.261719 511.359375 243.683594 521.101562 261.898438 531.148438 C 267.203125 534.117188 272.351562 537.289062 277.605469 540.308594 C 278.390625 543.582031 279.128906 546.828125 279.9375 550.050781 C 243.910156 560.554688 208.058594 571.746094 171.777344 581.308594 C 168.835938 582.402344 165.664062 581.460938 162.820312 582.578125 C 158.382812 584.480469 158 590.875 162.1875 593.261719 C 166.90625 595.695312 172.386719 593.058594 177.257812 592.269531 C 197.25 587.527344 216.789062 581.082031 236.425781 575.117188 C 248.554688 571.363281 260.808594 568.117188 273.011719 564.589844 C 272.960938 564.664062 272.910156 564.742188 272.859375 564.816406 C 264.742188 567.40625 256.597656 569.890625 248.503906 572.582031 C 222.117188 581.714844 194.839844 589.125 169.671875 601.328125 C 162.46875 604.167969 157.542969 614.496094 167.566406 616.957031 C 170.410156 617.441406 173.25 615.382812 174.035156 612.644531 C 202.628906 600.210938 232.214844 590.140625 262.027344 580.648438 C 258.804688 585.421875 255.480469 590.113281 252.257812 594.882812 C 241.78125 610.589844 231.53125 625.9375 221.175781 642.050781 C 217.21875 649.660156 198.292969 671.988281 212.628906 676.683594 C 215.722656 677.0625 219.097656 674.753906 219.300781 671.480469 C 222.320312 658.035156 233.179688 647.328125 239.773438 635.351562 C 243.300781 630.050781 246.804688 624.773438 250.304688 619.46875 C 240.664062 635.808594 231.074219 652.148438 221.40625 668.460938 C 219.757812 671.253906 220.796875 674.984375 223.585938 676.605469 C 228.789062 679.601562 232.339844 674.144531 234.34375 670.011719 C 247.765625 647.277344 260.984375 624.441406 274.585938 601.835938 C 279 594.757812 283.414062 587.679688 287.804688 580.574219 C 296.226562 611.859375 305.109375 643.015625 312.238281 674.628906 C 315.28125 688.457031 318.226562 702.335938 321.902344 715.984375 C 322.742188 719.433594 323.324219 723.214844 326.320312 725.5 C 330.859375 729.050781 337.507812 724.230469 335.65625 718.648438 C 338.21875 708.066406 334.363281 696.269531 333.195312 685.511719 C 329.769531 666.078125 326.523438 646.542969 322.589844 627.257812 C 321.015625 619.851562 319.367188 611.933594 317.742188 604.296875 C 314.902344 591.507812 311.730469 578.796875 308.660156 566.0625 C 311.578125 565.199219 314.46875 564.3125 317.386719 563.449219 C 349.535156 582.453125 381.578125 601.65625 413.902344 620.355469 C 420.753906 624.214844 426.488281 613.914062 419.867188 610.003906 C 392.691406 594.121094 365.644531 578.011719 338.574219 562 C 336.746094 560.886719 334.820312 559.894531 332.992188 558.78125 C 339.234375 556.902344 345.449219 554.972656 351.664062 553.070312 C 384.523438 568.675781 417 585.039062 447.722656 604.957031 C 450.4375 606.707031 454.296875 605.488281 455.867188 602.773438 C 457.566406 599.855469 456.425781 596.355469 453.710938 594.605469 C 442.472656 587.425781 430.925781 580.777344 419.382812 574.128906 Z M 215.949219 493.523438 C 235.183594 499.433594 253.832031 507.554688 272.199219 516.054688 C 272.785156 518.921875 273.34375 521.789062 273.976562 524.652344 C 254.71875 514.023438 235.335938 503.722656 215.925781 493.523438 Z M 312.871094 540.6875 C 313.835938 539.191406 314.773438 537.671875 315.738281 536.148438 C 317.539062 536.984375 319.339844 537.820312 321.117188 538.660156 C 318.378906 539.371094 315.585938 539.953125 312.871094 540.6875 Z M 312.871094 540.6875 "/><path style=" stroke:none;fill-rule:nonzero;fill:#f1c8d0;fill-opacity:1;" d="M 642.910156 175.613281 C 622.585938 179.316406 602.136719 182.589844 581.738281 185.8125 C 596.65625 183.046875 611.523438 180.128906 626.265625 176.527344 C 632.683594 174.394531 641.464844 173.9375 645.066406 167.46875 C 648.796875 160.210938 639.359375 156.9375 633.625 157.597656 C 608.152344 160.109375 582.980469 164.574219 557.863281 169.421875 C 557.738281 168.332031 557.636719 167.214844 557.507812 166.121094 C 559.539062 163.308594 561.71875 160.617188 563.75 157.800781 C 573.238281 145.773438 580.875 132.53125 593.664062 123.421875 C 611.222656 128.472656 601.199219 93.710938 576.105469 122.992188 C 569.128906 131.617188 562.40625 140.472656 555.65625 149.300781 C 553.878906 133.722656 551.953125 118.171875 550.480469 102.566406 C 554.160156 94.394531 542.945312 85.136719 538.605469 95.386719 C 539.746094 118.042969 542.183594 140.699219 544.875 163.332031 C 542.511719 166.476562 540.152344 169.648438 537.792969 172.820312 C 537.464844 172.644531 537.160156 172.414062 536.804688 172.238281 C 533.40625 147.09375 531.628906 121.773438 532.898438 96.402344 C 533.050781 94.75 533.253906 93.078125 533.609375 91.453125 C 535.460938 83.867188 524.066406 80.925781 522.0625 88.410156 C 519.375 113.984375 520.617188 139.632812 523.761719 165.183594 C 514.65625 160.390625 505.621094 155.492188 496.566406 150.644531 C 490.195312 144.886719 483.726562 139.230469 477.511719 133.292969 C 470.484375 128.574219 459.523438 110.378906 450.488281 117.6875 C 449.929688 118.21875 449.753906 118.929688 449.472656 119.589844 C 447.0625 115.859375 440.695312 115.632812 438.816406 120.378906 C 436.027344 131.972656 457.136719 141.105469 465.15625 146.789062 C 472.765625 151.128906 480.453125 155.316406 488.167969 159.449219 C 495.574219 165.972656 503.136719 172.3125 510.722656 178.65625 C 495.625 181.601562 480.53125 184.417969 465.355469 186.777344 C 446.507812 182.589844 446.253906 203.167969 465.8125 198.75 C 455.539062 201.464844 445.160156 203.800781 435.039062 207.074219 C 432.296875 207.9375 430.015625 209.890625 429.429688 212.808594 C 428.542969 216.183594 430.925781 219.910156 434.453125 220.265625 C 451.808594 220.519531 468.933594 215.726562 486.085938 213.339844 C 494.179688 211.917969 502.300781 210.726562 510.394531 209.382812 C 495.472656 229.300781 480.402344 249.0625 464.316406 268.066406 C 461.398438 270.425781 458.886719 275.398438 462.414062 278.621094 C 470.585938 284.890625 476.113281 271.214844 481.164062 266.46875 C 489.132812 256.042969 497.351562 245.816406 505.445312 235.488281 C 512.929688 226.078125 519.804688 216.234375 527.0625 206.667969 C 528.128906 206.488281 529.167969 206.3125 530.234375 206.160156 C 533.378906 222.90625 536.933594 239.550781 540.457031 256.042969 C 540.433594 255.839844 540.382812 255.636719 540.332031 255.433594 C 543.25 265.351562 543.222656 277.683594 550.101562 285.929688 C 555.78125 291.332031 564.027344 282.835938 558.523438 277.429688 C 553.753906 266.140625 552.636719 253.402344 549.464844 241.453125 C 546.777344 229.148438 544.214844 216.714844 541.929688 204.257812 C 541.929688 204.257812 541.929688 204.257812 541.957031 204.257812 C 544.898438 206.589844 547.867188 208.925781 550.808594 211.234375 C 553.550781 232.191406 556.214844 253.148438 558.269531 274.082031 C 558.648438 277.304688 561.949219 279.585938 565.070312 279.128906 C 573.621094 277.152344 568.722656 266.570312 568.773438 260.507812 C 567.277344 247.566406 565.652344 234.628906 564.078125 221.6875 C 581.359375 235.234375 598.6875 248.757812 615.789062 262.5625 C 622.054688 267.304688 629.082031 257.84375 623.042969 253.074219 C 603.332031 236.351562 582.625 220.851562 562.074219 205.144531 C 561.949219 204.054688 561.820312 202.964844 561.667969 201.847656 C 582.777344 216.308594 602.542969 232.621094 622.484375 248.632812 C 628.753906 253.378906 635.832031 243.914062 629.742188 239.167969 C 612.515625 225.265625 595.210938 211.410156 577.222656 198.496094 C 599.726562 194.945312 622.230469 191.417969 644.660156 187.359375 C 652.425781 186.089844 650.546875 174.445312 642.910156 175.5625 Z M 642.910156 175.613281 "/></g></svg>